<?xml version="1.0" encoding="UTF-8" standalone="no"?>
<svg
   viewBox="0 0 1514.703 495.28993"
   height="495.28992"
   width="1514.703"
   xml:space="preserve"
   id="svg2"
   version="1.1"
   sodipodi:docname="Bolsa_Mexicana_De_Valores.svg"
   inkscape:version="1.1 (c68e22c387, 2021-05-23)"
   xmlns:inkscape="http://www.inkscape.org/namespaces/inkscape"
   xmlns:sodipodi="http://sodipodi.sourceforge.net/DTD/sodipodi-0.dtd"
   xmlns="http://www.w3.org/2000/svg"
   xmlns:svg="http://www.w3.org/2000/svg"
   xmlns:rdf="http://www.w3.org/1999/02/22-rdf-syntax-ns#"
   xmlns:cc="http://creativecommons.org/ns#"
   xmlns:dc="http://purl.org/dc/elements/1.1/"><sodipodi:namedview
     id="namedview34"
     pagecolor="#ffffff"
     bordercolor="#666666"
     borderopacity="1.0"
     inkscape:pageshadow="2"
     inkscape:pageopacity="0.0"
     inkscape:pagecheckerboard="0"
     showgrid="false"
     fit-margin-top="0"
     fit-margin-left="0"
     fit-margin-right="0"
     fit-margin-bottom="0"
     width="238.55515px"
     inkscape:zoom="1"
     inkscape:cx="973.5"
     inkscape:cy="229.5"
     inkscape:window-width="1920"
     inkscape:window-height="1017"
     inkscape:window-x="1912"
     inkscape:window-y="-8"
     inkscape:window-maximized="1"
     inkscape:current-layer="svg2" /><metadata
     id="metadata8"><rdf:RDF><cc:Work
         rdf:about=""><dc:format>image/svg+xml</dc:format><dc:type
           rdf:resource="http://purl.org/dc/dcmitype/StillImage" /></cc:Work></rdf:RDF></metadata><defs
     id="defs6" /><g
     id="g12791"
     transform="matrix(0.68790266,0,0,0.68790266,164.09956,0)"><path
       id="rect10204"
       style="fill:#4aaa42;fill-opacity:1;stroke-width:1.52272"
       d="m 9.949,0 c 60.960338,0 109.99087,49.0287 109.99087,110 0,-60.9713 49.0388,-110 108.66613,-110 z" /><path
       id="path16-3"
       style="fill:#254467;fill-opacity:1;fill-rule:evenodd;stroke:none;stroke-width:2.36471"
       d="M 119.99994,120.0095 C 119.99994,53.4899 66.5077,0 0,0 V 239.9952 L 119.99994,361.44723 238.55515,239.9952 V 0 C 173.50175,0 119.99994,53.4899 119.99994,120.0095" /><path
       id="path18-5"
       style="fill:#8087a1;fill-opacity:1;fill-rule:evenodd;stroke:none;stroke-width:2.36471"
       d="M 119.99994,601.44957 C 119.99994,666.50776 173.50175,720 238.55515,720 V 479.99054 H 0 V 720 c 66.5077,0 119.99994,-53.49224 119.99994,-118.55043" /><path
       id="path20-1"
       style="fill:#aaadbf;fill-opacity:1;fill-rule:evenodd;stroke:none;stroke-width:2.36471"
       d="m -120.00012,360.00483 c -65.04862,1.4419 -118.55043,54.93231 -118.55043,119.98571 H 0 V 239.9952 h -238.55055 c 0,66.5196 53.50181,120.00963 118.55043,120.00963" /><path
       id="path22-1"
       style="fill:#4a5b7c;fill-opacity:1;fill-rule:evenodd;stroke:none;stroke-width:2.36471"
       d="m 358.56449,360.00483 c 66.496,0 118.54334,-53.49003 118.54334,-120.00963 H 238.55515 v 239.99534 h 238.55268 c 0,-65.0534 -52.04734,-118.54331 -118.54334,-119.98571" /></g><path
     fill-rule="evenodd"
     clip-rule="evenodd"
     fill="#254467"
     d="m 595.72584,284.65117 c 6.33348,19.90906 39.83678,128.15069 46.52117,149.16314 3.70109,-6.06131 5.00995,-11.8918 6.82714,-17.41142 12.05724,-36.61467 24.2479,-73.19199 35.02696,-110.21493 2.31886,-7.96789 4.90055,-15.85706 7.13402,-23.8463 0.83921,-3.00731 2.47362,-3.78648 5.40087,-3.73445 8.83379,0.1561 17.67692,0.1988 26.50805,-0.0227 3.3155,-0.0841 4.53097,1.28884 4.64971,4.26946 0.0334,0.83255 0.0707,1.66643 0.0814,2.49898 0.42695,38.31979 0.80453,76.63958 1.29285,114.95937 0.29085,22.8203 0.64842,45.64059 1.23414,68.45422 0.12408,4.86185 -1.45029,6.54429 -6.27345,6.24409 -5.64637,-0.35223 -11.3341,-0.15343 -17.00181,-0.0707 -2.75247,0.04 -3.98528,-1.08738 -3.89055,-3.86254 0.0694,-1.99597 -0.13075,-3.99862 -0.14143,-5.99859 -0.15744,-26.50538 0.1481,-53.0241 -0.62441,-79.5108 -0.4563,-15.66227 -0.33088,-31.3112 -0.56037,-46.9628 -0.0293,-2.03199 -0.30553,-3.9706 -1.55301,-6.47624 -2.8859,9.52491 -5.73977,18.47211 -8.29744,27.50203 -4.66973,16.47614 -10.37881,32.60938 -15.91044,48.79866 -7.08464,20.7376 -14.54286,41.34711 -21.74492,62.04602 -1.0647,3.05934 -2.56435,4.75245 -6.09199,4.51629 -3.98395,-0.26684 -8.05996,-0.49499 -11.98653,0.0427 -5.50761,0.75382 -7.65435,-2.02933 -9.22738,-6.63902 -14.52953,-42.5906 -28.74018,-85.28526 -42.51054,-128.12668 -1.0607,-3.30216 -2.02133,-6.63635 -3.06334,-10.06927 -1.91726,1.28218 -1.24482,3.08603 -1.25816,4.59635 -0.22415,23.8383 -0.0974,47.68326 -0.65777,71.51356 -0.50433,21.47941 -1.30352,42.94949 -1.2208,64.43825 0.012,2.93792 -0.9633,4.2708 -4.03464,4.20275 -5.66639,-0.12675 -11.34077,-0.11874 -17.00715,0.009 -3.20744,0.0734 -4.51496,-1.22213 -4.44292,-4.44158 0.34423,-15.48082 0.6044,-30.96297 0.8619,-46.44512 0.21481,-12.82974 0.42295,-25.65949 0.56037,-38.4919 0.2028,-18.83502 0.005,-37.68204 0.61107,-56.50505 0.47497,-14.81505 0.60039,-29.62609 0.72047,-44.44114 0.036,-4.48961 1.43027,-6.36417 6.35216,-6.10533 8.48023,0.44696 17.01249,0.38158 25.50206,0.024 4.78714,-0.20013 6.87784,1.1661 8.21472,6.09733 4.38154,16.17194 -4.81916,-16.05452 0,0 4.01329,13.46483 -4.30549,-13.37143 0,0 z"
     id="path10"
     sodipodi:nodetypes="cccccccccsccsccccccccsccccccccccccccccccc"
     style="stroke-width:1.33421" /><path
     id="path12"
     d="m 589.40844,26.73447 c -10.10265,-0.02762 -20.21752,0.348562 -30.31414,0.02081 -4.77113,-0.154767 -6.29916,1.25102 -6.26714,6.134223 0.20147,30.676113 0.10167,61.354255 0.10167,92.031718 0,31.011 0.0674,62.02262 -0.0861,93.03496 -0.02,3.93858 1.08371,5.18408 5.04498,5.14138 16.8377,-0.18145 33.67979,-0.20611 50.51749,-0.0287 10.98988,0.11608 21.49713,-1.96543 31.61709,-6.05344 30.51334,-12.32809 39.6047,-42.07384 29.85031,-69.95212 -5.01529,-14.3334 -16.06139,-22.34484 -30.01187,-26.92652 -1.05402,-0.34556 -2.48899,-0.23442 -2.63975,-1.79545 -0.12942,-1.31285 0.99999,-1.48118 1.91792,-1.88144 15.5542,-6.78044 24.13593,-18.372752 25.4568,-35.549352 C 665.86053,64.445075 661.12346,50.760556 647.77738,40.587219 635.92961,31.55463 621.91934,28.753007 607.57394,27.458825 601.52647,26.913467 595.46998,26.750947 589.40837,26.73439 Z m -6.17331,22.272417 c 0.33479,-0.01067 0.69749,-0.0013 1.08926,0.02602 2.81785,0.2028 5.66008,0.04296 8.48994,0.0443 10.58561,-0.289523 20.93502,0.870757 30.57734,5.579178 7.57163,3.698425 11.84104,9.903026 12.89907,18.267177 2.71111,21.430056 -8.16615,31.167148 -27.15061,34.131758 -8.03593,1.25415 -16.19405,1.59947 -24.37274,1.51142 -3.79049,-0.0427 -4.84114,-1.33153 -4.81045,-4.94857 0.14009,-16.815029 0.14835,-33.632174 -0.0107,-50.444532 -0.028,-3.0003 0.94509,-4.091309 3.28861,-4.166798 z m 9.86324,81.769773 c 10.33871,-0.0303 20.63894,0.26091 30.65551,4.09643 14.9965,5.74376 22.2238,18.90302 20.57338,36.74805 -1.51699,16.39342 -14.69138,24.6463 -27.9454,27.42945 -10.94718,2.29751 -21.92956,1.08423 -32.88875,1.57656 -3.12605,0.14009 -3.51964,-1.47697 -3.5023,-4.00263 0.0734,-10.33878 0.0312,-20.67769 0.0312,-31.01513 10e-4,-10.17201 -0.004,-20.3454 0.008,-30.5174 0.001,-1.9893 -0.30959,-4.32912 2.72573,-4.2971 3.44526,0.0376 6.89648,-0.008 10.34273,-0.0183 z"
     style="fill:#254467;fill-opacity:1;stroke-width:1.33421" /><path
     id="path14"
     d="m 1461.3082,329.03946 c -13.5383,-0.16008 -26.4201,3.01367 -38.5017,10.17594 -2.4697,1.46496 -5.07,2.93731 -4.1147,6.53034 1.0807,4.07199 0.9304,8.25742 1.3107,12.39614 0.547,5.94523 1.1491,6.2621 5.991,2.91858 9.3234,-6.44023 19.307,-10.65248 30.8639,-11.27822 18.5389,-1.00066 28.6156,11.96763 29.9858,28.30501 0.2522,2.99263 -0.7819,3.96085 -3.7185,4.40914 -10.5042,1.60239 -21.1245,2.48938 -31.4633,5.18048 -19.146,4.97926 -37.9621,17.92412 -39.8152,44.01323 -1.353,19.03381 4.5922,35.14755 20.8495,42.17349 17.8424,7.70906 34.7391,5.1731 49.6862,-7.85411 1.5304,-1.33421 2.8139,-4.17083 5.1154,-3.22087 1.9759,0.81387 1.0537,3.59284 1.2352,5.51143 0.4429,4.6884 2.3212,7.2381 7.6247,6.72577 4.623,-0.4483 9.3455,-0.37333 13.9859,-0.0107 4.3495,0.34023 4.9433,-1.89053 3.9373,-5.06061 -0.9152,-2.88322 -1.6901,-5.69132 -1.6781,-8.74532 0.051,-13.49952 -0.3017,-27.001 -0.3017,-40.50051 v 0 c 0,-13.16997 0.2152,-26.34438 -0.071,-39.50768 -0.2095,-9.67568 -1.6915,-19.16913 -6.1811,-27.99492 -7.3689,-14.48683 -19.5511,-21.64181 -35.2628,-23.53105 -3.1923,-0.38425 -6.3533,-0.59889 -9.4775,-0.63583 z m 22.7728,73.4518 c 2.0677,0.0384 3.1976,1.27687 2.9394,4.64107 -0.3816,4.96326 -0.091,9.97821 -0.091,14.96815 0,2.82852 0.1799,5.66968 -0.041,8.47952 -0.3068,3.89322 1.5205,8.2619 -1.2587,11.59875 -4.4789,5.37953 -9.6744,10.13028 -16.3336,12.74533 -6.0118,2.36155 -12.362,3.27121 -18.5407,1.12314 -11.8878,-4.13205 -16.8214,-17.36676 -11.8515,-30.71285 4.1267,-11.07926 13.1273,-16.06823 23.6822,-19.27566 6.2548,-1.89991 12.8335,-1.6714 19.1323,-3.2391 0.8812,-0.21948 1.6734,-0.34114 2.3626,-0.32835 z"
     style="fill:#254467;fill-opacity:1;stroke-width:1.33421"
     sodipodi:nodetypes="cccccccccccsccccsccccccccccsccccccscc" /><path
     id="path16-1"
     d="m 1208.9031,328.67985 c -13.3749,-0.13646 -26.4948,3.99506 -39.2965,11.54142 -2.4109,1.4196 -2.9468,3.22085 -2.5772,5.83456 0.6751,4.77247 1.1645,9.57473 1.5661,14.37922 0.2455,2.95393 1.3935,3.51205 3.815,1.92834 3.0527,-1.99731 6.0269,-4.14642 9.2144,-5.90491 10.0572,-5.55164 20.8694,-7.98358 32.2555,-6.18373 11.5075,1.81719 19.6173,12.76567 21.3838,27.46331 0.3922,3.2568 -0.4555,4.29771 -3.7003,4.77135 -10.5136,1.53701 -21.154,2.35944 -31.4608,5.14661 -11.6116,3.13805 -22.1803,8.1766 -29.8373,17.82159 -9.8358,12.38812 -12.2638,26.49538 -9.2351,41.8321 2.3362,11.8411 8.2251,21.3311 19.3017,26.24899 18.6669,8.28543 35.9581,5.32324 51.3149,-8.32838 1.15,-1.02334 2.0831,-3.10338 4.039,-2.22281 1.5023,0.67778 0.9992,2.65579 1.4515,4.02869 0.2535,0.77117 0.2195,1.64697 0.2502,2.47818 0.1494,3.88121 1.9608,5.70741 6.0222,5.46191 3.8185,-0.23081 7.6639,-0.047 11.4971,-0.047 7.9879,-0.003 7.9852,-10e-4 6.6737,-7.60393 -0.1401,-0.81921 -0.1606,-1.65619 -0.2607,-2.4834 -1.984,-16.27601 -0.5992,-32.62505 -1.0475,-48.93574 -0.4763,-15.31137 1.1584,-30.69705 -0.8443,-45.93637 -1.9759,-15.05921 -8.3562,-28.04914 -22.7337,-34.74153 -9.3709,-4.36273 -18.6403,-6.45519 -27.7917,-6.54856 z m 23.5181,73.79317 c 2.2069,-0.10406 3.2157,1.00303 3.0931,3.84107 -0.2308,5.32349 -0.061,10.66458 -0.06,16.00008 0,2.66708 0.1918,5.35429 -0.044,8.00003 -0.3456,3.88921 1.5703,8.25396 -1.2769,11.59615 -4.7511,5.57832 -10.0017,10.71181 -17.1571,13.25347 -5.7731,2.04935 -11.7601,2.97722 -17.6026,0.91987 -12.723,-4.48027 -17.6233,-18.99805 -11.5206,-32.39884 4.3055,-9.45153 12.1378,-14.48324 21.4906,-17.10496 7.162,-2.00932 14.6912,-2.72477 22.0587,-3.9896 0.3645,-0.0627 0.7037,-0.10234 1.019,-0.11728 z"
     style="fill:#254467;fill-opacity:1;stroke-width:1.33421" /><path
     id="path18-7"
     d="m 1032.4907,77.215489 c -13.7704,-0.236182 -27.1999,4.049949 -40.24256,11.62741 -2.00531,1.166098 -2.5985,2.828922 -2.30618,5.042373 0.60573,4.615026 1.11367,9.245508 1.68337,13.865868 0.17879,1.45295 -0.40626,3.45604 1.02401,4.15116 1.44228,0.70179 2.67829,-0.94702 3.8724,-1.79024 9.40886,-6.65103 19.55166,-11.241182 31.29136,-11.765532 19.1992,-0.85656 28.6744,11.582962 30.2594,28.656832 0.2829,3.04733 -1.3422,4.22577 -4.112,4.37787 -8.5056,0.46964 -16.8361,2.14875 -25.1936,3.6404 -26.3226,4.69507 -47.36008,21.43716 -45.87911,53.68363 0.98331,21.42338 16.35041,37.27069 37.76181,37.93113 13.2673,0.41093 24.3725,-4.1248 33.9961,-12.97726 1.0274,-0.94596 1.9787,-2.8553 3.5624,-2.22021 1.6504,0.66043 1.6508,2.70666 1.8709,4.35441 0.1561,1.15676 0.3863,2.30766 0.4717,3.46842 0.1934,2.64307 1.5226,3.81067 4.2137,3.77332 6.1693,-0.0854 12.3402,-0.0257 18.5096,-0.0391 1.9666,-0.004 3.059,-0.33942 2.3452,-2.92378 -1.8238,-6.607 -2.3651,-13.39745 -2.2984,-20.26329 0.1067,-10.8391 0.029,-21.68064 0.029,-35.20017 -0.3522,-12.64963 0.851,-28.01694 -0.654,-43.30964 -1.6838,-17.07119 -8.5645,-31.391694 -25.0607,-38.507026 -8.497,-3.664402 -16.8819,-5.43487 -25.1441,-5.576576 z m 22.5459,74.285691 c 2.2486,-0.0407 3.2402,1.08432 3.148,3.8593 -0.1681,5.16339 -0.047,10.33496 -0.044,15.50235 0,2.66708 0.161,5.34636 -0.033,7.99743 -0.3122,4.22544 1.5132,8.93566 -1.7355,12.54469 -4.9153,5.46359 -10.3055,10.55615 -17.5662,12.73491 -4.2882,1.28751 -8.7624,2.17336 -13.3161,1.33681 -12.7243,-2.3402 -20.0632,-15.25964 -16.4821,-28.17211 3.9532,-14.24934 14.5887,-20.36238 27.7187,-23.36168 5.6423,-1.28884 11.5146,-1.55251 17.2717,-2.3557 0.373,-0.052 0.7185,-0.0802 1.0397,-0.0861 z"
     style="fill:#254467;fill-opacity:1;stroke-width:1.33421" /><path
     id="path20-7"
     d="m 750.54795,77.562076 c -18.71414,-0.215981 -34.57294,6.987302 -45.92856,23.867214 -10.01189,14.88309 -13.16882,31.66969 -12.66715,50.10578 -0.50967,12.01052 1.52705,24.39794 5.69645,36.49787 10.70702,31.07905 42.16981,46.20766 73.06874,35.24447 16.66025,-5.91187 26.78264,-18.09478 32.69851,-34.01189 7.60766,-20.47208 8.36983,-41.58389 3.87755,-62.8485 -5.12603,-24.25724 -19.40016,-44.894627 -48.55528,-48.315537 -2.78514,-0.327041 -5.51682,-0.50856 -8.19026,-0.539407 z m 0.0287,20.602042 c 8.89433,-0.0474 17.8264,4.057892 23.54148,12.317972 6.8685,9.92917 8.95906,21.27842 9.45672,33.05815 0.66043,15.58088 -0.26444,30.85468 -7.54922,45.14939 -5.32882,10.45485 -13.33722,17.38235 -25.27438,17.27695 -11.83309,-0.10407 -20.14246,-6.82854 -25.29784,-17.3421 -5.9906,-12.22001 -7.82116,-25.28921 -7.72643,-33.82948 0.0881,-18.7136 1.6444,-32.20092 9.53491,-44.03668 5.56498,-8.34815 14.42042,-12.546843 23.31476,-12.594202 z"
     style="fill:#254467;fill-opacity:1;stroke-width:1.33421" /><path
     id="path22-7"
     d="m 809.87331,328.96129 c -4.78656,0.0779 -9.71446,0.73739 -14.68672,1.94919 -18.18125,4.4309 -28.45574,17.63222 -34.1995,34.60602 -6.70707,19.821 -7.69798,40.20766 -3.46321,60.59702 3.02332,14.55621 9.65545,27.50737 20.80009,37.85816 20.56949,19.10319 57.94908,17.52481 78.97887,2.28015 1.82252,-1.3222 2.16376,-2.80383 1.95963,-4.6984 -0.60841,-5.62369 -1.29046,-11.23887 -1.87885,-16.86522 -0.27751,-2.66041 -1.69255,-1.92039 -3.02542,-1.03715 -2.35488,1.55969 -4.54429,3.37536 -6.94986,4.84433 -17.3247,10.58293 -38.42294,10.56432 -51.29405,-3.5049 -6.60433,-7.54895 -10.99525,-16.19896 -12.9512,-26.05876 -0.38825,-2.8045 -0.74443,-5.61005 -1.17004,-8.40655 -0.44563,-2.92725 0.51903,-4.34218 3.7238,-4.25279 5.49693,0.15477 11.00073,0.0378 16.503,0.0364 17.50481,-0.003 35.01007,0.001 52.51621,-0.0133 2.29084,-10e-4 4.52307,0.4494 4.77657,-3.27037 0.92726,-13.54889 0.36159,-26.88366 -3.61435,-39.99759 -7.22516,-23.82621 -25.28322,-34.40426 -46.02497,-34.0666 z m -1.38112,19.4763 c 1.97922,-0.0267 4.03209,0.20418 6.15248,0.69317 9.89182,2.28149 14.24544,9.73376 16.78444,18.5382 1.51299,5.24878 2.29122,10.68817 2.20717,16.23981 -0.0414,2.80718 -0.91097,3.80716 -3.73682,3.75246 -7.31814,-0.14142 -14.64279,-0.047 -21.96493,-0.047 -7.3208,10e-4 -14.64538,0.0287 -21.96752,-0.026 -1.54368,-0.0107 -3.72311,0.46062 -3.58568,-2.18111 0.57504,-10.95652 2.49779,-21.55293 10.44434,-29.8477 4.45392,-4.64905 9.72888,-7.04181 15.66652,-7.12186 z"
     style="fill:#254467;fill-opacity:1;stroke-width:1.33421" /><path
     fill-rule="evenodd"
     clip-rule="evenodd"
     fill="#254467"
     d="m 1312.5933,347.76188 c 7.1366,-8.3508 15.2073,-14.86441 25.5554,-17.15124 22.0731,-4.8792 45.211,0.98331 51.926,28.50269 1.2435,5.09267 1.7292,10.164 1.7292,15.33805 0.013,31.51533 -0.1028,63.032 0.12,94.54599 0.033,4.92323 -1.4649,6.42955 -6.2014,6.01328 -4.3028,-0.37758 -8.6937,-0.39626 -12.9911,10e-4 -5.2502,0.48432 -6.4349,-1.72779 -6.4016,-6.62167 0.1948,-29.01369 0.1241,-58.02871 0.073,-87.04374 -0.013,-5.47559 0.1201,-11.00321 -1.8025,-16.28267 -3.9359,-10.81643 -13.1073,-16.11057 -24.3973,-14.08657 -15.1406,2.71644 -28.4347,18.52948 -28.4347,33.82884 0,28.18115 -0.083,56.36229 0.084,84.5421 0.027,4.24412 -0.9206,6.09466 -5.5143,5.66772 -4.2975,-0.40293 -8.7004,-0.44163 -12.9885,0.004 -5.3208,0.55236 -6.4216,-1.69444 -6.3215,-6.5603 0.2895,-14.00118 0.1027,-28.0117 0.1027,-42.01822 0,-29.34857 0.1161,-58.69715 -0.1107,-88.04306 -0.039,-5.11135 1.473,-6.86316 6.5376,-6.42021 4.6337,0.4056 9.3395,0.27085 13.9959,0.028 3.3728,-0.17611 4.3041,1.17277 4.2854,4.34685 -0.021,3.57701 -0.7231,7.25809 0.7539,11.40881 z"
     id="path24-7"
     style="stroke-width:1.33421" /><path
     fill-rule="evenodd"
     clip-rule="evenodd"
     fill="#254467"
     d="m 969.90584,474.93193 c -11.0339,3.06735 -15.79569,-2.79383 -20.16389,-12.12128 -5.81581,-12.42281 -13.5729,-23.93169 -20.40805,-35.88486 -1.83853,-3.21544 -3.14072,-3.23946 -5.01128,0.016 -8.43887,14.68029 -17.08987,29.24051 -25.44602,43.96616 -1.71712,3.02865 -3.65973,4.25079 -7.114,4.09335 -5.65437,-0.2575 -11.33143,-0.0387 -16.99781,-0.08 -5.12736,-0.0374 -5.39687,-0.54436 -2.92458,-5.03263 11.53022,-20.94707 23.97839,-41.35379 36.88418,-61.4643 3.08069,-4.80049 3.07402,-8.11066 0.06,-12.86044 -12.09059,-19.04849 -23.58079,-38.47055 -34.41056,-58.2702 -2.55368,-4.6684 -2.23613,-5.19941 3.21944,-5.22343 6.33349,-0.0254 12.66964,0.0934 18.99913,-0.044 2.85787,-0.0627 4.42023,1.00199 5.83449,3.56367 7.2194,13.07124 14.65094,26.02774 22.09849,38.97222 2.62439,4.56166 3.02732,4.50696 5.61301,0.11475 7.49291,-12.73502 15.07255,-25.42201 22.39602,-38.25309 1.76916,-3.1007 3.67174,-4.64571 7.40485,-4.43891 5.64771,0.31488 11.32877,0.0587 16.99515,0.0867 5.08466,0.0254 5.66638,0.90192 3.05267,5.36752 -7.54095,12.88178 -15.15794,25.71819 -22.84965,38.51191 -4.19075,6.96857 -8.42152,13.92647 -12.97918,20.65488 -1.89457,2.79783 -1.89324,4.92723 -0.16944,7.67303 12.8751,20.52679 25.61412,41.13897 37.23241,62.41693 0.23882,0.43495 0.58171,0.81386 0.8152,1.25148 3.54099,6.60033 3.31551,6.97658 -4.13071,6.98058 -2.66708,0.005 -5.33283,0.004 -7.99991,0.004 z"
     id="path26-3"
     style="stroke-width:1.33421" /><path
     fill-rule="evenodd"
     clip-rule="evenodd"
     fill="#254467"
     d="m 943.24036,99.695228 c -7.82914,-1.671761 -15.54486,-3.074021 -23.63417,-0.707131 -14.88042,4.354863 -14.74166,22.829643 -6.3575,29.686143 6.40687,5.23943 13.86242,8.49357 21.1939,12.0012 6.75242,3.23012 13.14595,6.93388 19.31399,11.24471 23.82629,16.65625 19.56483,57.03339 -7.5783,69.18002 -10.00256,4.47493 -20.35868,6.17472 -31.12841,5.40088 -11.37012,-0.81787 -22.27193,-3.5957 -32.52399,-8.78443 -2.16675,-1.09539 -3.58902,-2.10271 -3.29416,-4.80849 0.57771,-5.29413 0.88858,-10.61763 1.43427,-15.91577 0.3429,-3.33151 1.27818,-4.87252 4.99928,-2.40424 8.9979,5.96658 19.0605,9.29676 29.7435,10.83777 5.40622,0.77918 10.70169,0.16545 15.68362,-1.75982 6.62701,-2.55901 11.16465,-7.40218 11.9972,-14.66028 0.99132,-8.63499 -2.85521,-15.37941 -10.06527,-19.76495 -6.21874,-3.78248 -12.89779,-6.82315 -19.44474,-10.04659 -10.21337,-5.02596 -20.36002,-10.25873 -26.32927,-20.52679 -12.67498,-21.79697 -2.75781,-48.86672 20.98576,-57.899309 10.42017,-3.48762 20.8977,-4.333508 31.82087,-2.144073 7.37416,1.478303 14.36942,3.629046 21.13519,6.804462 2.81117,1.319531 3.90656,2.864544 3.1634,6.221412 -0.99265,4.497615 -1.60371,9.092628 -2.46695,13.634278 -0.68178,3.58368 -1.94928,3.41557 -4.15606,1.84654 -4.48027,-3.18876 -9.39415,-5.47826 -14.49216,-7.435542 z"
     id="path28-6"
     style="stroke-width:1.33421" /><path
     fill-rule="evenodd"
     clip-rule="evenodd"
     fill="#254467"
     d="m 1045.7076,403.02479 c 0.4123,-18.26932 3.7611,-35.77279 14.9431,-50.78931 13.2834,-17.84369 31.6061,-24.36264 53.3764,-23.01909 10.4175,0.64442 19.6395,4.28148 28.596,9.26608 3.517,1.95728 4.1454,4.28147 2.966,7.78777 -1.2689,3.7678 -2.3242,7.60899 -3.4503,11.42482 -1.3128,4.45759 -2.2815,4.75779 -5.9185,1.79718 -13.5676,-11.05124 -33.3325,-12.60826 -45.9181,-3.58101 -7.8252,5.61301 -12.2774,13.68497 -14.5936,22.61749 -4.6244,17.84104 -5.3568,35.81148 1.1701,53.48174 6.4469,17.45811 22.1839,26.45334 40.6533,23.93702 8.9539,-1.21813 17.0632,-4.28147 24.5294,-9.11797 3.2368,-2.09604 3.8839,-1.11807 4.108,2.16675 0.3389,4.97126 0.9647,9.92384 1.5157,14.87909 0.2642,2.38957 -0.3602,4.34552 -2.6404,5.3902 -21.4754,9.85179 -43.4325,12.92581 -65.4456,2.46428 -16.372,-7.78243 -25.1444,-22.19455 -30.0823,-39.09897 -2.8166,-9.63298 -3.972,-19.53947 -3.8092,-29.60607 z"
     id="path30-9"
     style="stroke-width:1.33421" /><path
     fill-rule="evenodd"
     clip-rule="evenodd"
     fill="#254467"
     d="m 833.37632,122.75169 c 0,-31.676781 0.0947,-63.354885 -0.10273,-95.030319 -0.028,-4.780468 1.23014,-6.566973 6.13335,-6.146697 4.80048,0.41227 9.66634,0.2028 14.49617,0.04937 2.96195,-0.09339 4.40689,0.983311 4.23611,4.015966 -0.056,0.996654 -10e-4,2.001312 -10e-4,3.000634 10e-4,62.686434 -0.0534,125.374206 0.1054,188.061976 0.012,4.87787 -0.9126,7.00193 -6.25343,6.42822 -4.78047,-0.51367 -9.67835,-0.37625 -14.48683,-0.0254 -4.02397,0.29352 -4.18008,-1.76783 -4.16807,-4.82183 0.0801,-21.84099 0.0414,-43.68064 0.0414,-65.52163 0,-10.00389 0,-20.00778 0,-30.01034 z"
     id="path32-0"
     style="stroke-width:1.33421" /><path
     fill-rule="evenodd"
     clip-rule="evenodd"
     fill="#254467"
     d="m 1024.9406,403.41971 c 0,21.83832 -0.096,43.67664 0.081,65.51362 0.036,4.41356 -0.9873,6.47625 -5.8331,6.08132 -4.8032,-0.38959 -9.6664,-0.2108 -14.4949,-0.0427 -3.561,0.12541 -5.1527,-1.14208 -5.146,-4.88587 0.064,-44.34107 0.063,-88.68482 0,-133.02722 0,-3.61571 1.3008,-5.16739 4.9966,-5.03397 4.9939,0.18012 10.0132,0.26284 14.9978,-0.0213 4.1347,-0.23482 5.5076,1.23415 5.4756,5.40621 -0.1641,22.0011 -0.077,44.00619 -0.076,66.00995 z"
     id="path34-6"
     style="stroke-width:1.33421" /><path
     fill-rule="evenodd"
     clip-rule="evenodd"
     fill="#2c496b"
     d="m 1026.9726,292.89658 c 0.048,9.31544 -6.096,15.60623 -14.5442,16.30669 -7.5529,0.62708 -15.13388,-8.00925 -15.05516,-16.03184 0.0841,-8.51759 6.68436,-15.87441 14.51086,-15.93712 8.6256,-0.0707 15.0418,6.58832 15.0885,15.66227 z"
     id="path36-1"
     style="stroke-width:1.33421" /></svg>
