<?xml version="1.0" encoding="UTF-8" standalone="no"?>
<svg
   viewBox="0 0 2957.0822 720.00001"
   height="720"
   width="2957.0823"
   xml:space="preserve"
   id="svg2"
   version="1.1"
   sodipodi:docname="cibanco.svg"
   inkscape:version="1.1 (c68e22c387, 2021-05-23)"
   xmlns:inkscape="http://www.inkscape.org/namespaces/inkscape"
   xmlns:sodipodi="http://sodipodi.sourceforge.net/DTD/sodipodi-0.dtd"
   xmlns="http://www.w3.org/2000/svg"
   xmlns:svg="http://www.w3.org/2000/svg"
   xmlns:rdf="http://www.w3.org/1999/02/22-rdf-syntax-ns#"
   xmlns:cc="http://creativecommons.org/ns#"
   xmlns:dc="http://purl.org/dc/elements/1.1/"><sodipodi:namedview
     id="namedview60"
     pagecolor="#ffffff"
     bordercolor="#666666"
     borderopacity="1.0"
     inkscape:pageshadow="2"
     inkscape:pageopacity="0.0"
     inkscape:pagecheckerboard="0"
     showgrid="false"
     fit-margin-top="0"
     fit-margin-left="0"
     fit-margin-right="0"
     fit-margin-bottom="0"
     inkscape:zoom="0.19704926"
     inkscape:cx="1804.1174"
     inkscape:cy="575.99811"
     inkscape:window-width="1920"
     inkscape:window-height="1017"
     inkscape:window-x="1912"
     inkscape:window-y="-8"
     inkscape:window-maximized="1"
     inkscape:current-layer="svg2" /><metadata
     id="metadata8"><rdf:RDF><cc:Work
         rdf:about=""><dc:format>image/svg+xml</dc:format><dc:type
           rdf:resource="http://purl.org/dc/dcmitype/StillImage" /></cc:Work></rdf:RDF></metadata><defs
     id="defs6"><clipPath
       id="clipPath18"
       clipPathUnits="userSpaceOnUse"><path
         id="path16"
         d="M 0,350 H 763 V 0 H 0 Z" /></clipPath></defs><g
     transform="matrix(4.2452176,0,0,-4.2452176,1495.3916,321.73928)"
     id="g72"
     style="fill:#268445;fill-opacity:1"><path
       id="path74"
       style="fill:#268445;fill-opacity:1;fill-rule:evenodd;stroke:none"
       d="M 0,0 C 4.978,-0.071 9.617,-0.483 14.193,0.769 20.868,2.594 24.998,6.765 26.356,13.66 27.691,20.443 24.726,25.256 18,26.796 13.713,27.778 9.356,27.312 5.023,27.221 4.889,27.218 4.757,27.064 4.38,26.827 2.92,18.104 1.279,9.216 0,0 m -6.958,-41.622 c 0.428,-0.199 0.642,-0.384 0.856,-0.385 6.104,-0.035 12.248,-0.671 18.293,0.474 7.666,1.452 14.031,6.182 14.666,15.769 0.303,4.569 -1.378,8.288 -5.568,10.371 -2.04,1.014 -4.371,1.786 -6.623,1.955 -4.883,0.365 -9.801,0.306 -14.705,0.349 -2.179,0.019 -2.279,-0.119 -2.637,-2.236 -1.272,-7.527 -2.532,-15.055 -3.782,-22.586 -0.207,-1.244 -0.339,-2.501 -0.5,-3.711 m 36.309,39.311 c 0.982,-0.23 1.968,-0.448 2.948,-0.692 9.827,-2.445 16.471,-11.327 15.797,-21.251 -0.371,-5.473 -2.498,-10.317 -5.88,-14.573 -6.858,-8.631 -15.816,-13.793 -26.649,-15.661 -2.286,-0.395 -4.64,-0.542 -6.964,-0.552 -11.69,-0.053 -23.38,-0.024 -35.069,-0.015 -0.714,0 -1.427,0.076 -2.284,0.124 -0.065,0.456 -0.216,0.845 -0.158,1.198 1.19,7.135 2.416,14.263 3.61,21.397 1.208,7.214 2.382,14.433 3.584,21.647 1.374,8.245 2.765,16.486 4.141,24.731 1.204,7.214 2.395,14.43 3.596,21.645 0.105,0.633 0.241,1.262 0.359,1.893 0.552,2.926 0.551,2.929 3.397,2.929 9.836,10e-4 19.672,0.03 29.507,-0.013 4.367,-0.019 8.697,-0.503 12.863,-1.874 1.901,-0.626 3.789,-1.393 5.541,-2.354 C 45.641,31.907 48.869,24.12 46.484,15.369 45.119,10.36 42.358,6.268 38.175,3.247 36.034,1.701 33.624,0.527 31.326,-0.8 30.66,-1.184 29.964,-1.516 29.282,-1.871 Z" /></g><g
     transform="matrix(4.2452176,0,0,-4.2452176,1121.3315,170.6384)"
     id="g76"><path
       id="path78"
       style="fill:#268445;fill-opacity:1;fill-rule:evenodd;stroke:none"
       d="m 0,0 c -1.978,-4.743 -3.769,-9.039 -5.627,-13.496 -0.685,0.235 -1.28,0.389 -1.832,0.637 -8.257,3.705 -16.974,5.031 -25.913,4.457 -6.802,-0.438 -12.672,-3.45 -17.728,-7.997 -17.898,-16.098 -14.361,-46.247 6.749,-57.629 5.252,-2.831 10.838,-3.817 16.788,-3.492 7.398,0.406 14.51,1.881 21.33,4.773 0.287,0.122 0.604,0.175 1.161,0.332 1.926,-4.344 3.839,-8.658 5.797,-13.075 -0.675,-0.423 -1.18,-0.811 -1.742,-1.081 -5.332,-2.567 -10.962,-4.104 -16.805,-4.997 -6.078,-0.929 -12.186,-1.149 -18.304,-0.912 -20.132,0.778 -39.96,12.924 -45.839,35.907 -3.617,14.136 -2.121,27.861 5.648,40.464 7.485,12.143 18.601,19.327 32.497,21.847 12.395,2.249 24.718,1.184 36.729,-2.715 C -4.743,2.261 -2.527,1.09 0,0" /></g><g
     transform="matrix(4.2452176,0,0,-4.2452176,2871.7311,408.72506)"
     id="g80"
     style="fill:#268445;fill-opacity:1"><path
       id="path82"
       style="fill:#268445;fill-opacity:1;fill-rule:evenodd;stroke:none"
       d="m 0,0 c 0.01,4.792 -0.688,8.229 -2.51,11.368 -2.542,4.38 -6.459,6.488 -11.441,6.229 -6.51,-0.339 -11.447,-3.572 -14.772,-9.11 -3.848,-6.411 -5.408,-13.391 -4.409,-20.838 1.089,-8.124 7.433,-12.702 15.515,-11.33 3.45,0.586 6.365,2.226 8.864,4.602 C -2.966,-13.574 -0.348,-6.68 0,0 m -21.979,-36.296 c -6.812,0.133 -13.166,1.646 -18.924,5.229 -6.738,4.193 -10.879,10.216 -11.856,18.159 -1.434,11.668 2.306,21.746 10.586,29.818 11.952,11.652 26.376,15.513 42.515,11.133 C 10.388,25.318 17.221,18.729 19.437,8.25 21.12,0.291 19.534,-7.326 15.691,-14.405 9.671,-25.497 0.076,-31.95 -11.983,-34.882 c -3.254,-0.792 -6.66,-0.96 -9.996,-1.414" /></g><g
     transform="matrix(4.2452176,0,0,-4.2452176,2290.7374,554.86371)"
     id="g84"
     style="fill:#268445;fill-opacity:1"><path
       id="path86"
       style="fill:#268445;fill-opacity:1;fill-rule:evenodd;stroke:none"
       d="m 0,0 h -18.354 c 0.524,3.328 1,6.478 1.519,9.621 1.23,7.45 2.489,14.896 3.718,22.347 0.548,3.329 1.067,6.662 1.558,10 0.104,0.706 0.106,1.448 0.025,2.158 -0.395,3.496 -2.352,5.567 -5.814,6.076 -5.948,0.875 -11.09,-1.226 -15.852,-4.514 -0.508,-0.35 -0.85,-1.173 -0.962,-1.829 -1.651,-9.677 -3.254,-19.362 -4.859,-29.047 -0.698,-4.207 -1.367,-8.419 -2.072,-12.624 -0.117,-0.701 -0.351,-1.382 -0.556,-2.171 h -18.338 c 3.485,20.929 6.936,41.655 10.404,62.483 h 17.334 v -5.763 c 1.175,0.596 1.948,0.951 2.686,1.369 4.944,2.804 10.146,4.918 15.805,5.702 3.604,0.498 7.228,0.577 10.809,-0.277 C 3.646,61.959 7.766,56.99 7.865,50.193 7.901,47.717 7.601,45.209 7.201,42.757 5.053,29.57 2.826,16.397 0.62,3.219 0.449,2.198 0.229,1.185 0,0" /></g><g
     transform="matrix(4.2452176,0,0,-4.2452176,1900.4966,431.6798)"
     id="g88"
     style="fill:#268445;fill-opacity:1"><path
       id="path90"
       style="fill:#268445;fill-opacity:1;fill-rule:evenodd;stroke:none"
       d="m 0,0 c -4.249,0.093 -8.088,-0.128 -11.845,-0.898 -2.329,-0.478 -4.673,-1.217 -6.801,-2.263 -3.204,-1.575 -5.133,-4.274 -5.638,-7.907 -0.416,-2.99 0.884,-5.464 3.691,-6.568 2.042,-0.803 4.195,-1.074 6.391,-0.786 3.67,0.482 6.849,2.184 10.014,3.961 1.34,0.751 2.319,1.569 2.38,3.272 0.042,1.187 0.432,2.359 0.623,3.544 C -0.792,-5.206 -0.426,-2.762 0,0 m 15.53,-29 c -0.831,-0.061 -1.536,-0.156 -2.242,-0.158 -4.836,-0.012 -9.672,-0.017 -14.509,0 -2.579,0.009 -2.633,0.09 -2.733,2.766 -0.026,0.702 -0.091,1.401 -0.166,2.522 -1.023,-0.585 -1.775,-0.973 -2.484,-1.427 -3.834,-2.46 -7.916,-4.37 -12.455,-4.982 -4.662,-0.629 -9.301,-0.571 -13.769,1.296 -6.821,2.849 -9.648,9.675 -8.554,15.896 1.836,10.436 8.563,16.416 17.978,19.931 3.713,1.386 7.611,2.022 11.595,2.112 3.866,0.086 7.731,0.255 11.595,0.417 1.764,0.074 1.828,0.098 2.095,1.93 0.243,1.664 0.465,3.354 0.444,5.029 -0.033,2.644 -1.33,4.686 -3.774,5.689 -1.531,0.627 -3.236,1.012 -4.889,1.13 -6.027,0.428 -11.863,-0.618 -17.533,-2.656 -0.68,-0.244 -1.361,-0.483 -2.048,-0.704 -0.145,-0.047 -0.319,-0.007 -0.847,-0.007 -0.72,2.8 -1.468,5.711 -2.255,8.773 0.584,0.338 1.093,0.71 1.659,0.949 9.641,4.061 19.65,6.143 30.147,5.518 3.321,-0.197 6.538,-0.898 9.582,-2.274 6.808,-3.076 10.114,-9.158 8.907,-16.5 -1.906,-11.599 -3.94,-23.177 -5.733,-34.792 -0.437,-2.828 -0.158,-5.767 -0.185,-8.655 -0.005,-0.543 0.102,-1.086 0.174,-1.803" /></g><g
     transform="matrix(4.2452176,0,0,-4.2452176,1271.7756,554.7474)"
     id="g92"
     style="fill:#268445;fill-opacity:1"><path
       id="path94"
       style="fill:#268445;fill-opacity:1;fill-rule:evenodd;stroke:none"
       d="M 0,0 H -19.227 V 95.233 H -0.143 C 0.389,93.361 0.539,3.214 0,0" /></g><g
     transform="matrix(4.2452176,0,0,-4.2452176,2586.8082,499.57018)"
     id="g96"
     style="fill:#268445;fill-opacity:1"><path
       id="path98"
       style="fill:#268445;fill-opacity:1;fill-rule:evenodd;stroke:none"
       d="m 0,0 c 0.739,-3.311 1.45,-6.499 2.177,-9.753 -3.525,-1.976 -7.141,-3 -10.833,-3.792 -5.56,-1.191 -11.222,-1.391 -16.835,-0.913 -10.929,0.929 -20.619,6.416 -24.228,17.646 -2.004,6.234 -1.811,12.577 0.035,18.791 3.915,13.181 12.962,21.556 25.447,26.58 7.083,2.849 14.48,2.946 21.908,2.219 3.108,-0.303 6.177,-1.075 9.24,-1.74 C 8.068,48.786 9.16,48.234 10.429,47.764 10.232,47.116 10.131,46.581 9.912,46.1 8.709,43.462 7.501,40.826 6.248,38.212 5.449,36.545 5.359,36.469 3.684,37.076 0.001,38.409 -3.84,38.784 -7.693,39.027 -11.22,39.25 -14.555,38.417 -17.7,36.793 -27.17,31.905 -32.736,20.74 -30.916,10.243 c 1.295,-7.465 7.188,-12.628 14.795,-12.772 4.77,-0.091 9.491,0.421 14.057,1.945 0.6,0.201 1.219,0.347 2.064,0.584" /></g><g
     transform="matrix(4.2452176,0,0,-4.2452176,621.82386,553.45601)"
     id="g108"><path
       id="path110"
       style="fill:#253a74;fill-opacity:1;fill-rule:evenodd;stroke:none"
       d="m 0,0 c -0.93,-0.482 -1.426,-0.71 -1.894,-0.986 -11.112,-6.534 -23.137,-10.48 -35.785,-12.692 -9.006,-1.575 -18.082,-2.194 -27.206,-1.823 -18.193,0.74 -35.591,4.627 -51.642,13.544 -7.389,4.104 -14.014,9.195 -19.458,15.712 -5.322,6.371 -8.958,13.521 -10.132,21.846 -1.147,8.137 0.488,15.702 4.39,22.838 3.534,6.46 8.424,11.771 14.08,16.417 0.172,0.141 0.405,0.207 1.048,0.523 -0.505,-0.856 -0.768,-1.381 -1.102,-1.857 -5.735,-8.176 -8.215,-17.22 -7.282,-27.18 0.326,-3.478 1.219,-6.819 2.557,-10.032 2.905,-6.977 7.418,-12.766 13.053,-17.762 11.909,-10.557 26.024,-16.582 41.363,-19.875 23.687,-5.084 47.08,-3.849 70.042,4.057 2.51,0.864 4.925,1.997 7.406,2.95 0,0 1.77,0.634 1.897,1.898 L 0,0" /></g><g
     transform="matrix(4.2452176,0,0,-4.2452176,409.64195,84.446894)"
     id="g112"><path
       id="path114"
       style="fill:#ed1d27;fill-opacity:1;fill-rule:evenodd;stroke:none"
       d="m 0,0 c 2.063,-1.675 6.071,-4.224 8.071,-5.969 18.294,-15.971 31.019,-35.639 38.411,-58.71 4.788,-14.94 6.596,-30.18 3.375,-45.766 -1.524,-7.375 -4.296,-14.172 -8.898,-20.167 -2.119,-2.761 -4.57,-5.199 -7.424,-7.214 -8.171,-5.771 -17.249,-8.127 -27.194,-7.228 -0.58,0.053 -1.166,0.02 -2.16,0.031 0.595,-0.4 0.768,-0.57 0.976,-0.648 6.845,-2.59 13.887,-4.184 21.248,-4.029 8.132,0.171 15.506,2.523 21.99,7.571 6.634,5.166 11.022,11.88 13.894,19.668 2.939,7.968 4.052,16.248 3.93,24.699 -0.266,18.361 -5.563,35.382 -13.985,51.525 C 48.01,-38.141 42.952,-30.58 37.1,-23.556 28.881,-13.691 19.468,-5.23 8.267,1.148 7.794,1.417 6.264,2.678 5.383,3.244 L 0,0" /></g><g
     transform="matrix(4.2452176,0,0,-4.2452176,113.72862,473.49776)"
     id="g116"><path
       id="path118"
       style="fill:#fad411;fill-opacity:1;fill-rule:evenodd;stroke:none"
       d="m 0,0 c 0.049,1.046 0.1,1.59 0.096,2.133 -0.084,12.89 2.529,25.274 6.955,37.326 3.152,8.583 7.166,16.747 12.061,24.456 9.76,15.371 21.844,28.476 37.606,37.896 7.255,4.336 14.981,7.517 23.349,8.96 8.18,1.412 16.19,0.975 23.982,-2.183 7.616,-3.087 13.342,-8.293 17.561,-15.247 3.819,-6.295 5.963,-13.189 7.147,-20.412 0.036,-0.219 -0.024,-0.454 -0.072,-1.17 -0.488,0.866 -0.81,1.358 -1.055,1.886 -4.2,9.06 -10.782,15.74 -19.869,19.925 -3.172,1.462 -6.511,2.363 -9.962,2.816 C 90.307,97.37 83.035,96.367 75.887,93.995 60.783,88.982 48.494,79.789 37.956,68.166 21.683,50.219 11.026,29.358 6.356,5.526 5.846,2.922 5.615,0.263 5.197,-2.361 c 0,0 -0.339,-1.849 0.691,-2.593 L 0,0" /></g></svg>
